<svg width="548" height="634" viewBox="0 0 548 634" fill="none" xmlns="http://www.w3.org/2000/svg">
<g clip-path="url(#clip0_1_21)">
<path fill-rule="evenodd" clip-rule="evenodd" d="M219.836 464.942C238.296 446.418 256.666 426.462 273.997 405.243C291.328 426.468 309.704 446.418 328.158 464.942C350.892 487.761 373.758 508.418 394.983 526.628C430.08 490.902 464.562 450.048 491.883 405.141C528.544 344.88 552.304 277.312 547.342 204.983C542.959 141.183 533.434 87.5187 522.64 44.2546L429.265 0C444.828 57.9109 453.931 168.2 456.883 211.204C461.344 276.152 431.384 339.396 388.228 396.425C339.555 346.988 295.107 290.02 273.997 229.602C252.887 290.026 208.439 346.988 159.766 396.425C116.61 339.396 86.6559 276.152 91.111 211.204C94.0629 168.206 103.166 57.9109 118.729 0L25.3539 44.2546C14.5604 87.5187 5.03456 141.183 0.651961 204.983C-4.31619 277.312 19.45 344.88 56.1105 405.141C83.4324 450.048 117.914 490.896 153.011 526.628C174.235 508.418 197.102 487.767 219.836 464.942Z" fill="#47A0D9"/>
<path fill-rule="evenodd" clip-rule="evenodd" d="M274.003 634C301.156 612.093 336.199 583.44 372.092 549.181C357.719 536.274 342.917 522.388 328.17 507.584C309.71 489.06 291.34 469.104 274.009 447.885C256.678 469.11 238.302 489.06 219.848 507.584C205.101 522.388 190.299 536.28 175.92 549.187C211.814 583.44 246.856 612.093 274.009 634.006" fill="#BCE2EC"/>
</g>
<defs>
<clipPath id="clip0_1_21">
<rect width="548" height="634" fill="white"/>
</clipPath>
</defs>
</svg>
