<svg width="612" height="113" viewBox="0 0 612 113" fill="none" xmlns="http://www.w3.org/2000/svg">
<path d="M22.9 52.2L30.1 93.45L53.65 9H65.8L89.35 93L96.85 52.2L105.7 9H118.6L96.1 111H82.9L59.5 27.6L36.1 111H22.75L0.4 9H14.05L22.9 52.2ZM189.638 106.65C185.138 108.85 180.638 110.35 176.138 111.15C171.638 112.05 167.488 112.5 163.688 112.5C152.988 112.5 144.988 109.45 139.688 103.35C134.488 97.25 131.888 88.9 131.888 78.3V69.3C131.888 59 134.488 50.75 139.688 44.55C144.988 38.35 152.438 35.25 162.038 35.25C167.138 35.25 171.788 36.3 175.988 38.4C180.288 40.4 183.688 43.5 186.188 47.7C188.788 51.8 190.088 57.1 190.088 63.6C190.088 67.8 189.488 72.6 188.288 78H144.038V78.3C144.038 85.9 145.588 91.65 148.688 95.55C151.888 99.45 156.988 101.4 163.988 101.4C167.188 101.4 170.688 101 174.488 100.2C178.388 99.4 182.188 98.15 185.888 96.45L189.638 106.65ZM162.038 46.05C156.238 46.05 151.838 47.95 148.838 51.75C145.938 55.45 144.338 60.7 144.038 67.5H177.638C177.938 65.7 178.088 64 178.088 62.4C178.088 56.8 176.488 52.7 173.288 50.1C170.188 47.4 166.438 46.05 162.038 46.05ZM271.374 78.3C271.374 88.7 268.774 97 263.574 103.2C258.374 109.4 250.724 112.5 240.624 112.5C230.624 112.5 220.724 109.85 210.924 104.55V-1.43051e-06H223.224V46.8C227.724 42.6 231.824 39.65 235.524 37.95C239.324 36.15 243.174 35.25 247.074 35.25C254.874 35.25 260.874 38.25 265.074 44.25C269.274 50.25 271.374 58.7 271.374 69.6V78.3ZM244.074 46.8C241.274 46.8 238.274 47.55 235.074 49.05C231.974 50.55 228.024 53.65 223.224 58.35V97.65C229.124 100.15 234.674 101.4 239.874 101.4C246.574 101.4 251.374 99.35 254.274 95.25C257.174 91.05 258.624 85.4 258.624 78.3V69.6C258.624 61.8 257.424 56.05 255.024 52.35C252.624 48.65 248.974 46.8 244.074 46.8ZM346.973 36.75L320.723 111H309.173L282.623 36.75H295.373L307.823 72.9L315.323 95.55L322.673 72.9L334.823 36.75H346.973ZM415.81 106.65C411.31 108.85 406.81 110.35 402.31 111.15C397.81 112.05 393.66 112.5 389.86 112.5C379.16 112.5 371.16 109.45 365.86 103.35C360.66 97.25 358.06 88.9 358.06 78.3V69.3C358.06 59 360.66 50.75 365.86 44.55C371.16 38.35 378.61 35.25 388.21 35.25C393.31 35.25 397.96 36.3 402.16 38.4C406.46 40.4 409.86 43.5 412.36 47.7C414.96 51.8 416.26 57.1 416.26 63.6C416.26 67.8 415.66 72.6 414.46 78H370.21V78.3C370.21 85.9 371.76 91.65 374.86 95.55C378.06 99.45 383.16 101.4 390.16 101.4C393.36 101.4 396.86 101 400.66 100.2C404.56 99.4 408.36 98.15 412.06 96.45L415.81 106.65ZM388.21 46.05C382.41 46.05 378.01 47.95 375.01 51.75C372.11 55.45 370.51 60.7 370.21 67.5H403.81C404.11 65.7 404.26 64 404.26 62.4C404.26 56.8 402.66 52.7 399.46 50.1C396.36 47.4 392.61 46.05 388.21 46.05ZM476.546 47.55C472.046 47.55 467.646 48.35 463.346 49.95C459.146 51.55 454.646 54.6 449.846 59.1V111H437.546V36.75H449.246V48.75C454.346 43.75 458.996 40.25 463.196 38.25C467.496 36.25 471.946 35.25 476.546 35.25V47.55ZM510.774 101.55C520.774 101.55 525.774 98.15 525.774 91.35C525.774 88.45 524.874 86.15 523.074 84.45C521.274 82.75 517.974 81.3 513.174 80.1L504.924 78C498.824 76.5 494.274 73.9 491.274 70.2C488.274 66.4 486.774 61.9 486.774 56.7C486.774 52.9 487.624 49.4 489.324 46.2C491.024 42.9 493.724 40.25 497.424 38.25C501.124 36.25 505.924 35.25 511.824 35.25C515.624 35.25 519.474 35.7 523.374 36.6C527.374 37.4 531.424 38.8 535.524 40.8L531.624 51.15C524.324 47.85 517.724 46.2 511.824 46.2C503.124 46.2 498.774 49.45 498.774 55.95C498.774 58.45 499.574 60.6 501.174 62.4C502.774 64.2 505.774 65.65 510.174 66.75L518.424 68.85C525.024 70.45 529.874 73.05 532.974 76.65C536.074 80.25 537.624 84.9 537.624 90.6C537.624 94.7 536.724 98.45 534.924 101.85C533.224 105.15 530.424 107.75 526.524 109.65C522.724 111.55 517.574 112.5 511.074 112.5C506.774 112.5 502.474 112.05 498.174 111.15C493.974 110.25 489.624 108.8 485.124 106.8L488.424 96.6C492.724 98.3 496.624 99.55 500.124 100.35C503.624 101.15 507.174 101.55 510.774 101.55ZM611.073 106.65C606.573 108.85 602.073 110.35 597.573 111.15C593.073 112.05 588.923 112.5 585.123 112.5C574.423 112.5 566.423 109.45 561.123 103.35C555.923 97.25 553.323 88.9 553.323 78.3V69.3C553.323 59 555.923 50.75 561.123 44.55C566.423 38.35 573.873 35.25 583.473 35.25C588.573 35.25 593.223 36.3 597.423 38.4C601.723 40.4 605.123 43.5 607.623 47.7C610.223 51.8 611.523 57.1 611.523 63.6C611.523 67.8 610.923 72.6 609.723 78H565.473V78.3C565.473 85.9 567.023 91.65 570.123 95.55C573.323 99.45 578.423 101.4 585.423 101.4C588.623 101.4 592.123 101 595.923 100.2C599.823 99.4 603.623 98.15 607.323 96.45L611.073 106.65ZM583.473 46.05C577.673 46.05 573.273 47.95 570.273 51.75C567.373 55.45 565.773 60.7 565.473 67.5H599.073C599.373 65.7 599.523 64 599.523 62.4C599.523 56.8 597.923 52.7 594.723 50.1C591.623 47.4 587.873 46.05 583.473 46.05Z" fill="#47A0D9"/>
</svg>
